<?xml version="1.0" encoding="utf-8"?>
<svg version="1.1" id="Layer_1" xmlns="http://www.w3.org/2000/svg"
	xmlns:xlink="http://www.w3.org/1999/xlink" x="0px" y="0px"
	viewBox="0 0 2030 2030" style="enable-background:new 0 0 2030 2030;" xml:space="preserve">
<g>
	<path d="M1331.279,1575.031H1015.57H699.861c-81.445,0-147.47,70.941-147.47,158.451v78.109h463.179h463.179v-78.109
		C1478.749,1645.972,1412.724,1575.031,1331.279,1575.031z"/>
	<path d="M1368.769,508.639c-2.377-12.241-5.182-24.171-8.438-35.697c-36.431-111.022-152.199-149.996-200.322-161.625
		c-165.071-32.284-292.291-84.839-311.082-92.82c-0.009-0.003-0.019-0.007-0.029-0.01c-1.09-0.394-2.108,0.769-1.672,1.913
		l45.037,118.287c0.3,0.789-0.086,1.685-0.843,1.94c-13.198,4.455-115.528,41.141-143.932,116.655
		c-62.579,166.373-153.432,189.644-166.294,192.146c-2.77,0.539-5.487,1.384-8.049,2.642
		c-16.358,8.036-52.206,41.078,30.735,164.936c20.569,34.729,62.404,46.778,96.443,27.885
		c33.239-18.448,30.279-89.234,97.756-82.727c155.489,14.993,185.017-15.727,220.151-43.499c0.982-0.775,2.342,0.133,2.136,1.423
		c-3.59,22.403-30.077,149.201-182.044,261.442c-121.324,89.609-212.723,222.991-142.742,302.093
		c35.049,39.617,54.165,95.99,56.785,104.06c0.19,0.586,0.703,0.976,1.281,0.976h529.295c1.099,0,1.745-1.328,1.111-2.293
		c-0.507-0.773-1.13-1.73-1.851-2.854c-6.36-8.953-12.017-18.657-16.995-29.016c-13.36-25.063-27.739-58.606-24.126-81.661
		c0.023-0.149,0.024-0.299,0.001-0.448c-18.146-119.294,16.139-275.643,81.248-394.034c49.378-89.784,69.551-240.246,47.829-362.24
		C1369.642,513.787,1369.178,511.296,1368.769,508.639z"/>
	<path d="M1336.816,1423.167c-8.467-1.646-16.042-2.723-22.037-3.144c-1.896-0.133-3.641-0.205-5.198-0.205H973.508h-254.38
		c-1.557,0-3.302,0.071-5.197,0.205c-5.994,0.422-13.57,1.498-22.037,3.144c-42.255,8.217-106.629,30.655-106.629,57.051
		c0,26.461,64.688,48.944,106.937,57.111c11.013,2.129,20.506,3.289,26.926,3.289h254.38h336.073c6.42,0,15.913-1.159,26.926-3.289
		c42.249-8.168,106.937-30.651,106.937-57.111C1443.445,1453.822,1379.071,1431.384,1336.816,1423.167z"/>
</g>
</svg>