<svg width="372" height="381" viewBox="0 0 372 381" fill="none" xmlns="http://www.w3.org/2000/svg">
    <path d="M120.013 290.247L179.79 260.747L239.515 290.247L179.79 320.748L120.013 290.247Z"
        fill="#00923A" />
    <path d="M120.011 350.248L179.79 320.748L239.515 350.248L179.791 380.248L120.011 350.248Z"
        fill="#00923A" />
    <path
        d="M0.503906 290.246C0.503906 290.246 53.4974 245.243 40.9943 187.24L36.4259 182.431C23.4861 168.81 24.8009 147.073 39.2813 135.103C51.419 125.069 69.0176 125.209 80.9888 135.441C94.9311 147.357 96.2149 168.459 83.8199 181.977L78.9943 187.24C63.4974 241.743 120.006 290.246 120.006 290.246L60.2814 320.747L0.503906 290.246Z"
        fill="#00923A" />
    <path
        d="M120.013 230.245C120.013 230.245 218.497 150.742 120.013 52.7432L179.791 24.2432L239.515 52.7432C143.997 157.243 239.515 230.245 239.515 230.245L179.79 260.747L120.013 230.245Z"
        fill="#00923A" />
    <path
        d="M299.292 320.748L359.017 290.247C359.997 260.747 363.817 243.742 366.997 231.742C388.997 148.742 316.997 128.242 304.997 130.242V106.242C300.997 109.742 289.997 109.242 284.497 130.242C280.097 128.642 274.997 132.909 272.997 135.242L231.497 186.242C225.997 201.242 239.515 210.742 250.997 206.742C250.997 199.142 263.997 192.242 270.497 189.742C297.497 194.742 299.292 185.742 304.997 178.742C304.997 199.242 296.997 215.242 292.497 218.242C274.997 243.742 257.997 233.242 239.515 290.247L299.292 320.748Z"
        fill="#00923A" />
    <path
        d="M179.791 24.2432C173.997 24.2432 166.997 7.7422 179.791 0.742188C183.497 0.742188 194.497 15.7422 179.791 24.2432Z"
        fill="#00923A" />
</svg>